<svg xmlns="http://www.w3.org/2000/svg" viewBox="0 0 1116.33 118.85"><path d="M181.46,110.75a.75.75,0,0,1-.29-.06L109.58,83.33l-23.35-3.5-84.62.69a.81.81,0,0,1-.73-.45.84.84,0,0,1,.1-.86l11.35-14A.77.77,0,0,1,12.7,65l97.63-32L147.9,13.21a.75.75,0,0,1,.29-.09l47.86-4.83h.08a.86.86,0,0,1,.39.09l67.09,36.41a.81.81,0,0,1,.41.64.78.78,0,0,1-.29.7L223.54,78.22l-1.71,11.44a.81.81,0,0,1-.61.66l-25.67,6.23L182,110.5A.81.81,0,0,1,181.46,110.75Z"/><path d="M196.13,9.09,263.22,45.5,222.79,77.79,221,89.54l-25.9,6.28-13.67,14.12L109.78,82.55,86.28,79l-84.67.7L13,65.71l97.69-32,37.63-19.77,47.86-4.83m0-1.61H196l-47.86,4.83a1.5,1.5,0,0,0-.59.18L110,32.21l-97.57,32a1.7,1.7,0,0,0-.75.52L.36,78.71a1.61,1.61,0,0,0,1.25,2.62h0l84.55-.7,23.2,3.48,71.52,27.33a1.41,1.41,0,0,0,.57.11,1.61,1.61,0,0,0,1.16-.49L196,97.27l25.44-6.17a1.6,1.6,0,0,0,1.21-1.32l1.67-11.13,39.94-31.9a1.62,1.62,0,0,0,.6-1.39,1.64,1.64,0,0,0-.84-1.28L196.9,7.68a1.61,1.61,0,0,0-.77-.2Z" style="fill:#fff"/><polygon points="263.22 45.5 222.79 77.79 221.03 89.54 195.13 95.82 181.46 109.94 109.78 82.55 86.28 79.02 1.61 79.72 12.95 65.71 110.64 33.69 148.27 13.92 196.13 9.09 263.22 45.5"/><polygon points="141.87 59.64 80.05 43.72 12.95 65.71 1.61 79.72 86.28 79.02 121.08 75 116 62.69 141.87 59.64" style="fill:#424242"/><polygon points="145.68 46.08 148.14 38.65 155.96 38.7 149.66 34.06 152.13 26.64 145.77 31.2 139.47 26.56 141.84 34.02 135.48 38.57 143.3 38.62 145.68 46.08" style="fill:#ffc200"/><polyline points="142.32 59.7 111.59 55.09 24.36 69.73 2.06 79.79" style="fill:none;stroke:#000;stroke-miterlimit:10;stroke-width:0.6463085720013825px"/><path d="M398.65,40.73V74H387.87V62.75H365.53v45.32H406.1V89.53h10.77v29.32H342.55V108.07h10V10.78h-10V0h74.32V29.32H406.1V10.78H365.53V52h22.34V40.73Z" style="fill:#bababa"/><path d="M435.1,108.07h10V10.78h-10V0h33.27V10.78h-10.3v97.29h33.28V89.53h10.78v29.32h-67Z" style="fill:#bababa"/><path d="M582.31,108.07h46.75V90h11.09v28.84H568.68V107.44l59.74-96.66H584.21V28.52H573V0h68.77V11.41Z" style="fill:#bababa"/><path d="M744.1,108.07v10.78H713.2V108.07h8.56l-7.93-31.53H680.56l-7.93,31.53h8.72v10.78h-30.9V108.07h10L688,0h18.7l27.1,108.07ZM711.3,66.56,697.2,10.78,683.09,66.56Z" style="fill:#bababa"/><path d="M851.7,10.78h-10V118.85H826.18L781.34,26.31v81.76h10.3v10.78H758.36V108.07h10V10.78h-10V0h24.4l46,94.45V10.78h-10.3V0H851.7Z" style="fill:#bababa"/><path d="M959.61,108.07v10.78h-30.9V108.07h8.56l-7.93-31.53H896.07l-7.93,31.53h8.72v10.78H866V108.07h10L903.51,0h18.7l27.1,108.07Zm-32.8-41.51-14.1-55.78L898.6,66.56Z" style="fill:#bababa"/><path d="M973.24,108.07h10V10.78h-20V29.47H951.84V0h75.91V29.47h-11.57V10.78h-20v97.29h10.3v10.78H973.24Z" style="fill:#bababa"/><path d="M1098.11,40.73V74h-10.78V62.75H1065v45.32h40.56V89.53h10.78v29.32H1042V108.07h10V10.78h-10V0h74.32V29.32h-10.78V10.78H1065V52h22.34V40.73Z" style="fill:#bababa"/></svg>