<svg xmlns="http://www.w3.org/2000/svg" viewBox="0 0 1098.54 121.53"><path d="M211.9,120.59a.83.83,0,0,1-.34-.07L128,88.57l-27.27-4.09-98.81.81a.94.94,0,0,1-.73-1.53L14.4,67.4a.94.94,0,0,1,.43-.3l114-37.36,43.86-23a.88.88,0,0,1,.35-.1L228.94.94H229a1,1,0,0,1,.45.11l78.34,42.52a.94.94,0,0,1,.14,1.56L261,82.6,259,96a.92.92,0,0,1-.7.77l-30,7.27-15.78,16.3A.92.92,0,0,1,211.9,120.59Z"/><path d="M229,1.88l78.34,42.51L260.16,82.1l-2.05,13.72-30.25,7.34-16,16.49-83.7-32-27.45-4.12-98.87.82L15.13,68,129.2,30.61,173.14,7.52,229,1.88M229,0h-.19L173,5.65a2,2,0,0,0-.68.21l-43.8,23L14.54,66.21a1.83,1.83,0,0,0-.87.6L.42,83.17a1.88,1.88,0,0,0,1.46,3.06h0l98.73-.81,27.1,4.07,83.51,31.91a2,2,0,0,0,.67.13,1.86,1.86,0,0,0,1.35-.58l15.59-16.1,29.71-7.2A1.88,1.88,0,0,0,260,96.1l2-13,46.64-37.25a1.88,1.88,0,0,0-.28-3.12L229.93.23A1.91,1.91,0,0,0,229,0Z" style="fill:#fff"/><polygon points="307.37 44.39 260.16 82.1 258.11 95.82 227.86 103.16 211.9 119.65 128.2 87.66 100.75 83.54 1.88 84.36 15.13 68 129.2 30.61 173.14 7.52 229.03 1.88 307.37 44.39"/><polygon points="165.67 60.91 93.47 42.32 15.13 68 1.88 84.36 100.75 83.54 141.39 78.85 135.46 64.47 165.67 60.91" style="fill:#424242"/><polygon points="170.11 45.07 172.99 36.4 182.12 36.46 174.77 31.04 177.65 22.37 170.22 27.7 162.86 22.28 165.63 30.98 158.21 36.31 167.34 36.37 170.11 45.07" style="fill:#ffc200"/><polyline points="166.2 60.98 130.31 55.6 28.45 72.69 2.41 84.43" style="fill:none;stroke:#000;stroke-miterlimit:10;stroke-width:0.7547161160949377px"/><path d="M380.86,42V75.25H370.08V64H347.74v45.32h40.57V90.78h10.77V120.1H324.76V109.32h10V12h-10V1.25h74.32V30.56H388.31V12H347.74v41.2h22.34V42Z" style="fill:#bababa"/><path d="M417.31,109.32h10V12h-10V1.25h33.27V12h-10.3v97.3h33.28V90.78h10.78V120.1h-67Z" style="fill:#bababa"/><path d="M564.52,109.32h46.75V91.25h11.09V120.1H550.89V108.69L610.63,12H566.42V29.77H555.17V1.25h68.77V12.66Z" style="fill:#bababa"/><path d="M726.31,109.32V120.1h-30.9V109.32H704L696,77.79H662.77l-7.93,31.53h8.72V120.1h-30.9V109.32h10L670.21,1.25h18.7L716,109.32ZM693.51,67.8,679.41,12,665.3,67.8Z" style="fill:#bababa"/><path d="M833.91,12h-10V120.1H808.39L763.55,27.55v81.77h10.3V120.1H740.57V109.32h10V12h-10V1.25H765l45.95,94.44V12h-10.3V1.25h33.28Z" style="fill:#bababa"/><path d="M941.82,109.32V120.1h-30.9V109.32h8.56l-7.93-31.53H878.28l-7.93,31.53h8.72V120.1h-30.9V109.32h10L885.72,1.25h18.7l27.1,108.07ZM909,67.8,894.92,12,880.81,67.8Z" style="fill:#bababa"/><path d="M955.45,109.32h10V12h-20v18.7h-11.4V1.25H1010V30.72H998.39V12h-20v97.3h10.3V120.1H955.45Z" style="fill:#bababa"/><path d="M1080.32,42V75.25h-10.78V64H1047.2v45.32h40.56V90.78h10.78V120.1h-74.32V109.32h10V12h-10V1.25h74.32V30.56h-10.78V12H1047.2v41.2h22.34V42Z" style="fill:#bababa"/></svg>