<svg xmlns="http://www.w3.org/2000/svg" viewBox="0 0 267.61 106.85"><path d="M182.85,105.35a1.39,1.39,0,0,1-.53-.1L110.79,77.92,87.57,74.43,3,75.13a1.5,1.5,0,0,1-1.17-2.44l11.35-14a1.45,1.45,0,0,1,.7-.49l97.57-32L149,6.51a1.53,1.53,0,0,1,.55-.17l47.86-4.83h.15a1.51,1.51,0,0,1,.72.18l67.09,36.41a1.53,1.53,0,0,1,.78,1.19,1.51,1.51,0,0,1-.56,1.3l-40,31.92-1.67,11.17a1.51,1.51,0,0,1-1.13,1.24L197.3,91.09,183.93,104.9A1.53,1.53,0,0,1,182.85,105.35Z"/><path d="M197.52,3l67.09,36.41L224.19,71.7l-1.77,11.75-25.89,6.28-13.68,14.12L111.17,76.46l-23.5-3.53L3,73.63l11.34-14,97.7-32L149.66,7.83,197.52,3m0-3-.3,0L149.36,4.85a3,3,0,0,0-1.09.33L110.86,24.83,13.41,56.77a3,3,0,0,0-1.4,1L.67,71.74A3,3,0,0,0,3,76.63H3l84.44-.69,23,3.44,71.37,27.27a2.86,2.86,0,0,0,1.07.2,3,3,0,0,0,2.16-.91l13.07-13.5,25-6.08a3,3,0,0,0,2.26-2.47L227,73.31l39.51-31.56a3,3,0,0,0-.44-5L199,.36A3,3,0,0,0,197.52,0Z" style="fill:#fff"/><polygon points="143.26 53.55 81.44 37.63 14.35 59.62 3 73.63 87.67 72.93 122.47 68.91 117.39 56.6 143.26 53.55" style="fill:#424242"/><polygon points="147.07 39.99 149.53 32.56 157.35 32.61 151.06 27.98 153.52 20.55 147.16 25.11 140.86 20.47 143.23 27.93 136.87 32.48 144.7 32.53 147.07 39.99" style="fill:#ffc200"/><polyline points="143.72 53.62 112.98 49 25.76 63.64 3.45 73.7" style="fill:none;stroke:#000;stroke-miterlimit:10;stroke-width:0.6463085720013825px"/></svg>