<svg xmlns="http://www.w3.org/2000/svg" viewBox="0 0 264.83 104.07"><path d="M181.46,103.27a.75.75,0,0,1-.29-.06L109.58,75.85l-23.35-3.5L1.61,73a.81.81,0,0,1-.73-.45.84.84,0,0,1,.1-.86l11.35-14a.86.86,0,0,1,.37-.26l97.63-32L147.9,5.73a.75.75,0,0,1,.29-.09L196.05.81h.08a.87.87,0,0,1,.39.1l67.09,36.41A.81.81,0,0,1,264,38a.8.8,0,0,1-.29.7L223.54,70.74l-1.71,11.44a.81.81,0,0,1-.61.66l-25.67,6.22L182,103A.81.81,0,0,1,181.46,103.27Z"/><path d="M196.13,1.61,263.22,38,222.79,70.31,221,82.06l-25.9,6.28-13.67,14.12L109.78,75.07l-23.5-3.53-84.67.7L13,58.23l97.69-32L148.27,6.44l47.86-4.83m0-1.61H196L148.11,4.84a1.5,1.5,0,0,0-.59.18L110,24.73l-97.57,32a1.7,1.7,0,0,0-.75.52L.36,71.23a1.61,1.61,0,0,0,1.25,2.62h0l84.55-.7,23.2,3.48L180.89,104a1.59,1.59,0,0,0,1.73-.38L196,89.79l25.44-6.17a1.6,1.6,0,0,0,1.21-1.32l1.67-11.13,39.94-31.9a1.62,1.62,0,0,0,.6-1.4A1.64,1.64,0,0,0,264,36.6L196.9.19a1.72,1.72,0,0,0-.77-.19Z" style="fill:#fff"/><polygon points="263.22 38.02 222.79 70.31 221.03 82.06 195.13 88.34 181.46 102.46 109.78 75.07 86.28 71.54 1.61 72.24 12.95 58.23 110.64 26.21 148.27 6.44 196.13 1.61 263.22 38.02"/><polygon points="141.87 52.16 80.05 36.24 12.95 58.23 1.61 72.24 86.28 71.54 121.08 67.52 116 55.21 141.87 52.16" style="fill:#424242"/><polygon points="145.68 38.6 148.14 31.17 155.96 31.22 149.66 26.58 152.13 19.16 145.77 23.72 139.47 19.08 141.84 26.53 135.48 31.09 143.3 31.14 145.68 38.6" style="fill:#ffc200"/><polyline points="142.32 52.22 111.59 47.61 24.36 62.25 2.06 72.31" style="fill:none;stroke:#000;stroke-miterlimit:10;stroke-width:0.6463085720013825px"/></svg>